External Loads File
version=1
nRows=47
nColumns=13
Range=5.000000e-03-10 seconds
endheader
time 	forceRightX 	forceRightY 	forceRightZ 	pointRightX 	pointRightY 	pointRightZ 	forceLeftX 	forceLeftY 	forceLeftZ 	pointLeftX 	pointLeftY 	pointLeftZ 		
7.505000 -54.889166 104.341290 -0.000000 0.303697 0.459044 -0.105265 162.932397 300.581612 -0.000000 0.078054 0.181733 -0.345124
7.510000 -59.115114 105.916356 -0.000000 0.309339 0.452142 -0.104915 139.049886 242.129627 -0.000000 0.073126 0.188549 -0.344797
7.515000 -63.293148 108.688228 -0.000000 0.314469 0.444651 -0.104598 115.341039 188.947349 -0.000000 0.068625 0.195680 -0.344537
7.520000 -67.555531 113.177863 -0.000000 0.319193 0.436322 -0.104255 93.059197 142.507290 -0.000000 0.064612 0.202839 -0.344391
7.525000 -71.956155 119.891257 -0.000000 0.323378 0.427631 -0.103928 73.322061 103.588877 -0.000000 0.060915 0.210626 -0.344254
7.530000 -76.567075 129.174875 -0.000000 0.327050 0.418247 -0.103642 56.839744 72.314804 -0.000000 0.057567 0.218562 -0.344240
7.535000 -81.440930 141.191750 -0.000000 0.330079 0.408558 -0.103341 43.964843 48.149584 -0.000000 0.054599 0.226864 -0.344080
7.540000 -86.569600 155.948430 -0.000000 0.332493 0.398728 -0.103043 34.707704 30.080344 -0.000000 0.052005 0.235443 -0.344015
7.545000 -91.667277 173.422249 -0.000000 0.334518 0.388518 -0.103022 28.779774 16.850780 -0.000000 0.049687 0.244157 -0.343745
7.550000 -96.359659 193.440898 -0.000000 0.335998 0.377874 -0.103076 25.603703 7.247989 -0.000000 0.047968 0.253421 -0.343680
7.555000 -100.535441 215.542739 -0.000000 0.336932 0.367037 -0.103374 24.465807 0.264532 -0.000000 0.046693 0.262879 -0.343444
7.560000 -103.935673 239.268394 -0.000000 0.337259 0.356094 -0.103319 24.661749 -4.895703 -0.000000 0.045979 0.272502 -0.343331
7.565000 -106.001689 264.266183 -0.000000 0.337104 0.345028 -0.103268 25.543509 -8.809815 -0.000000 0.045700 0.282347 -0.342938
7.570000 -106.577852 290.033220 -0.000000 0.336398 0.333906 -0.103216 26.592921 -11.786729 -0.000000 0.046083 0.292264 -0.342734
7.575000 -105.231811 316.227623 -0.000000 0.335377 0.322672 -0.102667 27.438305 -13.962752 -0.000000 0.047163 0.302209 -0.342856
7.580000 -101.764912 342.473640 -0.000000 0.333557 0.311435 -0.103315 27.888658 -15.310185 -0.000000 0.048846 0.312145 -0.342822
7.585000 -96.032270 368.463518 -0.000000 0.331343 0.300425 -0.103629 27.926953 -15.734453 -0.000000 0.051084 0.322147 -0.342785
7.590000 -88.077029 393.922652 -0.000000 0.328743 0.289480 -0.103714 27.678233 -15.119718 -0.000000 0.053543 0.331934 -0.342684
7.595000 -77.074241 418.802985 -0.000000 0.325641 0.278664 -0.103824 27.315004 -13.444740 -0.000000 0.056777 0.341952 -0.342670
7.600000 -64.040794 442.707160 -0.000000 0.322089 0.268089 -0.104006 27.100664 -10.627508 -0.000000 0.060593 0.351627 -0.342670
7.605000 -48.532253 465.561864 -0.000000 0.317906 0.257702 -0.103982 27.233804 -6.747707 -0.000000 0.064900 0.361191 -0.342721
7.610000 -31.538969 487.037250 -0.000000 0.313412 0.247677 -0.103972 27.921144 -1.861317 -0.000000 0.069679 0.370428 -0.342769
7.615000 -12.399101 506.868009 -0.000000 0.308658 0.237932 -0.104193 29.325738 3.773758 -0.000000 0.075030 0.379781 -0.342748
7.620000 8.015009 524.676525 -0.000000 0.303211 0.228608 -0.104134 31.577994 9.824725 -0.000000 0.080741 0.388853 -0.342740
7.625000 29.176224 540.295750 -0.000000 0.297470 0.219735 -0.103984 34.677826 15.726448 -0.000000 0.086872 0.397802 -0.342789
7.630000 50.810302 553.757915 -0.000000 0.291295 0.211196 -0.104056 38.410764 20.721234 -0.000000 0.093445 0.406517 -0.342890
7.635000 72.889896 565.254995 -0.000000 0.284503 0.203116 -0.103137 42.312043 24.024183 -0.000000 0.100261 0.415371 -0.342988
7.640000 92.849525 575.506719 -0.000000 0.277662 0.195657 -0.103308 45.594710 25.256179 -0.000000 0.107381 0.423660 -0.342875
7.645000 112.227911 584.779280 -0.000000 0.270411 0.188548 -0.103442 47.580346 24.121210 -0.000000 0.115043 0.431534 -0.342980
7.650000 131.896060 593.207573 -0.000000 0.262992 0.181909 -0.103642 47.699442 20.864354 -0.000000 0.123740 0.439484 -0.344024
7.655000 146.236643 602.314051 -0.000000 0.255215 0.176057 -0.103810 45.509631 16.718033 -0.000000 0.131059 0.446512 -0.342954
7.660000 161.290005 610.849340 -0.000000 0.247245 0.170323 -0.103803 41.385108 12.230551 -0.000000 0.139539 0.453137 -0.342835
7.665000 175.126683 619.086878 -0.000000 0.238971 0.165448 -0.103788 35.761799 8.580389 -0.000000 0.148288 0.459284 -0.342689
7.670000 187.538921 626.703772 -0.000000 0.230577 0.160793 -0.103601 29.335628 6.589945 -0.000000 0.157118 0.464677 -0.342597
7.675000 199.230588 632.911358 -0.000000 0.221949 0.156826 -0.103325 22.801309 6.716519 -0.000000 0.166243 0.469475 -0.342376
7.680000 210.427319 636.907669 -0.000000 0.213177 0.153561 -0.103007 16.675407 9.106589 -0.000000 0.175772 0.473550 -0.342019
7.685000 220.449396 638.138516 -0.000000 0.204225 0.150619 -0.102643 11.230201 13.598218 -0.000000 0.185194 0.476931 -0.342171
7.690000 229.193683 635.880619 -0.000000 0.195266 0.148947 -0.102238 6.501727 19.720753 -0.000000 0.194656 0.479557 -0.342013
7.695000 237.303950 629.160152 -0.000000 0.185892 0.147530 -0.102097 2.346045 26.808502 -0.000000 0.204056 0.481489 -0.342320
7.700000 243.453152 617.783705 -0.000000 0.176754 0.146725 -0.101713 -1.606011 34.133159 -0.000000 0.213429 0.482873 -0.342366
7.705000 248.010040 600.975822 -0.000000 0.167802 0.146459 -0.101200 -5.748029 40.997492 -0.000000 0.222939 0.483287 -0.342435
7.710000 250.004444 578.478762 -0.000000 0.158757 0.147062 -0.100964 -10.534044 46.860158 -0.000000 0.231889 0.483177 -0.342625
7.715000 249.851892 549.473827 -0.000000 0.150035 0.148552 -0.100775 -16.198675 51.430620 -0.000000 0.241086 0.482327 -0.342634
7.720000 246.903719 513.775950 -0.000000 0.141333 0.150684 -0.100629 -22.886440 54.645870 -0.000000 0.250141 0.480734 -0.343162
7.725000 240.069192 471.864830 -0.000000 0.132919 0.153647 -0.100575 -30.671917 56.585158 -0.000000 0.258977 0.478802 -0.343349
7.730000 229.095960 424.391408 -0.000000 0.124959 0.157326 -0.100645 -39.454536 57.448567 -0.000000 0.267421 0.475786 -0.343566
7.735000 213.922620 372.485279 -0.000000 0.117373 0.161645 -0.100757 -49.030855 57.501901 -0.000000 0.275570 0.472090 -0.344021
